<svg xmlns="http://www.w3.org/2000/svg" width="18" height="18" viewBox="0 0 18 18">
    <path fill="#16B8F1" fill-rule="evenodd" d="M17.438 16.875H1.125v-2.25H2.25a.562.562 0 1 0 0-1.125H1.125v-1.688a.562.562 0 1 0 0-1.124V9H2.25a.562.562 0 1 0 0-1.125H1.125V6.187a.562.562 0 1 0 0-1.125V3.375H2.25a.562.562 0 1 0 0-1.125H1.125V.562A.562.562 0 1 0 0 .563v16.313C0 17.497.503 18 1.125 18h16.313a.562.562 0 1 0 0-1.125zM15.75 9.562c.31 0 .563-.25.563-.562V6.187c0-.036-.006-.073-.012-.11a.434.434 0 0 1-.014-.047.33.33 0 0 0-.02-.056c-.005-.02-.016-.037-.028-.056l-.022-.043a.54.54 0 0 0-.197-.177c-.02-.011-.037-.022-.056-.03a1.42 1.42 0 0 0-.056-.018l-.048-.014a.484.484 0 0 0-.11-.011h-2.813a.562.562 0 1 0 0 1.125h1.455L9 12.142l-1.29-1.289a.564.564 0 0 0-.797 0l-2.812 2.813a.56.56 0 0 0 .399.959.549.549 0 0 0 .397-.166l2.415-2.413 1.289 1.288c.219.222.576.222.796 0l5.79-5.788V9c0 .312.25.563.563.563z"/>
</svg>
