<svg xmlns="http://www.w3.org/2000/svg" width="18" height="19" viewBox="0 0 18 19">
    <path fill="#16B8F1" fill-rule="evenodd" d="M17.437 17.21h-.562V9.18c0-.634-.505-1.147-1.125-1.147h-1.688c-.62 0-1.125.513-1.125 1.147v8.031h-.562V3.442c0-.634-.504-1.147-1.125-1.147H9.563c-.621 0-1.125.513-1.125 1.147V17.21h-.563v-5.163c0-.634-.504-1.147-1.125-1.147H5.063c-.62 0-1.125.513-1.125 1.147v5.163H1.125v-2.294H2.25c.31 0 .563-.256.563-.574a.57.57 0 0 0-.563-.574H1.125v-1.72c.31 0 .563-.256.563-.574a.57.57 0 0 0-.563-.574V9.179H2.25c.31 0 .563-.255.563-.574a.57.57 0 0 0-.563-.573H1.125V6.31c.31 0 .563-.255.563-.573a.57.57 0 0 0-.563-.574v-1.72H2.25c.31 0 .563-.256.563-.575a.57.57 0 0 0-.563-.573H1.125V.574A.57.57 0 0 0 .563 0 .57.57 0 0 0 0 .574V17.21c0 .634.505 1.148 1.125 1.148h16.312c.311 0 .563-.256.563-.574a.569.569 0 0 0-.563-.574zM14.062 9.18h1.688v8.031h-1.688V9.18zm-4.5-5.737h1.688V17.21H9.563V3.442zm-4.5 8.605H6.75v5.163H5.063v-5.163z"/>
</svg>
