<svg xmlns="http://www.w3.org/2000/svg" width="33" height="39" viewBox="0 0 33 39">
    <g fill="#FF6D4A" fill-rule="evenodd">
        <path stroke="#FFF" d="M30.801 12.39h-8.98a.815.815 0 0 1-.817-.814V3.518c0-.369.23-.685.549-.82l-.07-.071H3.857a.816.816 0 0 0-.817.814v14.643H1.408V3.44A2.448 2.448 0 0 1 3.858 1H21.82c.217 0 .425.085.577.238l9.798 9.763c.154.152.24.358.24.575V35.98a2.448 2.448 0 0 1-2.45 2.441H3.858a2.448 2.448 0 0 1-2.45-2.44v-7.138h1.633v7.137c0 .45.367.814.817.814h26.127c.45 0 .816-.365.816-.814V12.39zm-8.164-8.613v6.985h7.01l-7.01-6.985z" opacity=".8"/>
        <path fill-opacity=".1" stroke="#FFF" d="M26.225 29.473H1.721c-.398 0-.721-.363-.721-.813V18.084c0-.45.323-.814.72-.814h24.505c.398 0 .72.364.72.814V28.66c0 .45-.322.813-.72.813z"/>
        <text font-family=".SFNSText, .SF NS Text" font-size="6" letter-spacing=".055" transform="translate(1 1)">
            <tspan x="3.081" y="24.257">.pdf</tspan>
        </text>
    </g>
</svg>
