<svg xmlns="http://www.w3.org/2000/svg" width="33" height="39" viewBox="0 0 33 39">
    <g fill="none" fill-rule="evenodd">
        <path fill="#16B8F1" stroke="#FFF" d="M30.801 12.39h-8.98a.815.815 0 0 1-.817-.814V3.518c0-.369.23-.685.549-.82l-.07-.071H3.857a.816.816 0 0 0-.817.814v25.403H1.408V3.441A2.448 2.448 0 0 1 3.858 1H21.82c.217 0 .425.085.577.238l9.798 9.763c.154.152.24.358.24.575V35.98a2.448 2.448 0 0 1-2.45 2.441H3.858a2.448 2.448 0 0 1-2.45-2.44v-7.138h1.633v7.137c0 .45.367.814.817.814h26.127c.45 0 .816-.365.816-.814V12.39zm-8.164-8.613v6.985h7.01l-7.01-6.985z" opacity=".8"/>
        <path stroke="#16B8F1" stroke-linecap="square" d="M8.37 17.5h17.28M8.37 22.5h17.28M8.37 27.5h17.28"/>
    </g>
</svg>
