<svg xmlns="http://www.w3.org/2000/svg" width="16" height="18" viewBox="0 0 16 18">
    <path fill="#16B8F1" fill-rule="evenodd" d="M15.187 12.375a.56.56 0 0 0 .562-.563V1.687c0-.309-.25-.562-.562-.562h-6.75V.562a.562.562 0 1 0-1.125 0v.563H.562A.564.564 0 0 0 0 1.687v10.125c0 .312.253.563.562.563h6.75v2.86L5.51 17.04a.56.56 0 0 0 0 .793c.22.223.577.223.796 0l1.007-1.006v.61a.562.562 0 1 0 1.125 0v-.61l1.01 1.006c.11.113.253.166.396.166a.56.56 0 0 0 .4-.959l-1.806-1.805v-2.86h6.75zM1.125 2.25h13.5v9h-13.5v-9zm10.687 4.5a.562.562 0 1 0 1.125 0V3.937a.484.484 0 0 0-.025-.157c-.006-.02-.009-.04-.017-.056-.009-.02-.02-.037-.028-.057-.009-.014-.014-.028-.023-.042a.55.55 0 0 0-.2-.177c-.016-.011-.033-.023-.053-.03l-.056-.018c-.017-.003-.034-.011-.05-.014a.468.468 0 0 0-.11-.011H9.562a.562.562 0 1 0 0 1.125h1.454L7.312 8.204 6.024 6.916a.564.564 0 0 0-.796 0l-2.25 2.25a.56.56 0 0 0 .397.959.55.55 0 0 0 .4-.166l1.85-1.85 1.29 1.287c.22.222.577.222.797 0l4.1-4.1V6.75z"/>
</svg>
