<svg xmlns="http://www.w3.org/2000/svg" width="20" height="11" viewBox="0 0 20 11">
    <path fill="#BEBEBE" fill-rule="evenodd" d="M9.69 0C3.381 0 .232 4.615.101 4.811a.607.607 0 0 0 0 .673c.13.197 3.28 4.811 9.587 4.811 6.308 0 9.457-4.614 9.588-4.811a.605.605 0 0 0 0-.673C19.147 4.615 15.997 0 9.689 0zm0 9.084c-4.696 0-7.5-2.931-8.324-3.936.822-1.012 3.61-3.937 8.323-3.937 4.696 0 7.5 2.931 8.324 3.937-.822 1.011-3.61 3.936-8.324 3.936zm0-6.662a2.729 2.729 0 0 0-2.726 2.726A2.729 2.729 0 0 0 9.69 7.873a2.729 2.729 0 0 0 2.725-2.725A2.729 2.729 0 0 0 9.69 2.422zm0 4.24a1.515 1.515 0 0 1-1.515-1.514A1.515 1.515 0 1 1 9.69 6.662z"/>
</svg>
