<?xml version="1.0"?>
<svg xmlns="http://www.w3.org/2000/svg" xmlns:xlink="http://www.w3.org/1999/xlink" version="1.1" id="Layer_1" x="0px" y="0px" viewBox="0 0 512 512" style="enable-background:new 0 0 512 512;" xml:space="preserve" width="512px" height="512px" class=""><g><g>
	<g>
		<g>
			<path d="M266.667,192h170.667C478.507,192,512,158.507,512,117.333c0-41.173-33.493-74.667-74.667-74.667     c-1.941,0-3.883,0.107-5.781,0.277C413.781,16.299,383.936,0,352,0c-49.664,0-90.645,37.888-95.509,86.315     c-24.555,4.779-43.157,26.411-43.157,52.352C213.333,168.085,237.269,192,266.667,192z" data-original="#000000" class="active-path" data-old_color="#000000" fill="#00B1EF"/>
			<path d="M44.267,320h423.467c3.627,0,7.019-1.856,8.96-4.885c1.963-3.072,2.24-6.891,0.725-10.219l-38.976-85.333     c-1.728-3.797-5.525-6.229-9.707-6.229H266.624c-41.173,0-74.667-33.493-74.667-74.667c0-5.888-4.779-10.667-10.667-10.667h-32     c-15.851,0-30.528,9.045-37.824,23.125c-0.256,0.405-0.491,0.789-0.704,1.216L34.688,304.576     c-1.664,3.307-1.472,7.232,0.469,10.368C37.099,318.08,40.576,320,44.267,320z" data-original="#000000" class="active-path" data-old_color="#000000" fill="#00B1EF"/>
			<path d="M469.333,341.333H42.667C19.136,341.333,0,360.469,0,384v85.333C0,492.864,19.136,512,42.667,512h426.667     C492.864,512,512,492.864,512,469.333V384C512,360.469,492.864,341.333,469.333,341.333z M128,384     c11.755,0,21.333,9.557,21.333,21.333s-9.579,21.333-21.333,21.333c-11.755,0-21.333-9.557-21.333-21.333S116.245,384,128,384z      M64,384c11.755,0,21.333,9.557,21.333,21.333S75.755,426.667,64,426.667c-11.755,0-21.333-9.557-21.333-21.333     S52.245,384,64,384z M458.667,469.333H53.333c-5.888,0-10.667-4.779-10.667-10.667S47.445,448,53.333,448h405.333     c5.888,0,10.667,4.779,10.667,10.667S464.555,469.333,458.667,469.333z" data-original="#000000" class="active-path" data-old_color="#000000" fill="#00B1EF"/>
		</g>
	</g>
</g></g> </svg>
