<svg xmlns="http://www.w3.org/2000/svg" width="21" height="21" viewBox="0 0 21 21">
    <g fill="#BEBEBE" fill-rule="evenodd">
        <path d="M5.722 8.161l.071.044c.205.127.353.219.41.413.22.766 1.715 3.614 3.736 3.614 2.02 0 3.515-2.849 3.736-3.613.055-.194.204-.286.409-.414.025-.016.05-.03.07-.044.542-.984.457-1.424.393-1.57a.397.397 0 0 0-.258-.224.455.455 0 0 1-.35-.455c0-.011.057-1.139-.218-2.173-.026-.096-.72-2.448-3.782-2.448-3.086 0-3.777 2.426-3.784 2.45-.275 1.038-.217 2.16-.216 2.17a.44.44 0 0 1-.361.458.398.398 0 0 0-.248.223c-.063.145-.149.585.392 1.57m4.217 4.952c-2.436 0-4.136-2.924-4.542-4.117l-.07-.043c-.159-.098-.264-.164-.333-.287-.585-1.033-.74-1.86-.459-2.459.134-.287.337-.46.515-.563 0-.447.033-1.302.253-2.131C5.31 3.48 6.183.41 9.939.41c3.755 0 4.627 3.07 4.636 3.102.22.83.253 1.686.252 2.133.178.103.381.276.515.563.28.598.125 1.426-.46 2.46-.068.122-.173.187-.332.286l-.07.043c-.408 1.196-2.109 4.117-4.541 4.117"/>
        <path d="M13.124 13.252a.443.443 0 0 1-.204-.049c-.895-.464-1.161-.917-1.206-1.003a.44.44 0 0 1 .78-.414c.013.021.205.309.833.634a.44.44 0 0 1-.203.832M10.169 20.723c-5.079 0-9.73-.844-9.78-.853a.442.442 0 0 1-.362-.455c.21-4.397 2.953-5.762 4.998-6.406 1.593-.502 2.427-1.315 2.435-1.324a.442.442 0 0 1 .621.627c-.04.039-.996.972-2.791 1.538-1.992.627-4.05 1.744-4.355 5.219 1.322.216 5.83.882 10.411.756a.441.441 0 0 1 .025.881c-.402.012-.803.017-1.202.017M14.008 14.975v4.85h5.298v-4.85h-5.298zm5.297 5.732h-5.297a.883.883 0 0 1-.883-.882v-4.85c0-.487.396-.882.883-.882h5.297c.487 0 .883.395.883.882v4.85a.883.883 0 0 1-.883.882z"/>
        <path d="M19.305 17.18h-5.297a.441.441 0 1 1 0-.883h5.297a.441.441 0 1 1 0 .882M15.332 15.857a.441.441 0 0 1-.441-.441v-1.764a.441.441 0 0 1 .883 0v1.764c0 .243-.198.44-.442.44M17.981 15.857a.441.441 0 0 1-.441-.441v-1.764a.441.441 0 0 1 .882 0v1.764c0 .243-.197.44-.441.44"/>
    </g>
</svg>
